<?xml version="1.0" encoding="UTF-8"?>
<!DOCTYPE svg PUBLIC "-//W3C//DTD SVG 1.1//EN" "http://www.w3.org/Graphics/SVG/1.1/DTD/svg11.dtd">
<!-- Creator: CorelDRAW X6 -->
<svg xmlns="http://www.w3.org/2000/svg" xml:space="preserve" width="133.801mm" height="155.594mm" version="1.1" style="shape-rendering:geometricPrecision; text-rendering:geometricPrecision; image-rendering:optimizeQuality; fill-rule:evenodd; clip-rule:evenodd"
viewBox="0 0 130550 151812"
 xmlns:xlink="http://www.w3.org/1999/xlink">
 <defs>
  <style type="text/css">
   <![CDATA[
    .str1 {stroke:#849CB0;stroke-width:1290.75;stroke-opacity:0.027451}
    .str0 {stroke:#849CB0;stroke-width:1290.75;stroke-opacity:0.050980}
    .fil1 {fill:none}
    .fil0 {fill:none}
    .fil7 {fill:#1251A3;fill-rule:nonzero}
    .fil9 {fill:#12BBCE;fill-rule:nonzero}
    .fil8 {fill:#FB8100;fill-rule:nonzero}
    .fil6 {fill:url(#id0)}
    .fil5 {fill:url(#id1)}
    .fil4 {fill:url(#id2)}
    .fil3 {fill:url(#id3)}
    .fil2 {fill:url(#id4)}
   ]]>
  </style>
  <linearGradient id="id0" gradientUnits="userSpaceOnUse" x1="4126.81" y1="99640.9" x2="4126.81" y2="107088">
   <stop offset="0" style="stop-color:#5140A9"/>
   <stop offset="1" style="stop-color:#281E70"/>
  </linearGradient>
  <linearGradient id="id1" gradientUnits="userSpaceOnUse" x1="14594.2" y1="64875.4" x2="20457.5" y2="67009.5">
   <stop offset="0" style="stop-color:#29DFE9"/>
   <stop offset="1" style="stop-color:#12BBCE"/>
  </linearGradient>
  <linearGradient id="id2" gradientUnits="userSpaceOnUse" xlink:href="#id0" x1="92128.8" y1="122702" x2="93813.6" y2="123316">
  </linearGradient>
  <linearGradient id="id3" gradientUnits="userSpaceOnUse" x1="71963.5" y1="13678.1" x2="79537.4" y2="17050.3">
   <stop offset="0" style="stop-color:#FB8100"/>
   <stop offset="1" style="stop-color:#F7B995"/>
  </linearGradient>
  <linearGradient id="id4" gradientUnits="userSpaceOnUse" xlink:href="#id1" x1="98795.3" y1="96564.7" x2="101886" y2="97689.9">
  </linearGradient>
 </defs>
 <g id="Layer_x0020_1">
  <metadata id="CorelCorpID_0Corel-Layer"/>
  <polygon id="Mask-Copy-41" class="fil0 str0" points="66852,28659 106490,52283 106490,99530 66852,123153 27214,99530 27214,52283 "/>
  <polygon id="Mask-Copy-41_0" class="fil1 str1" points="66852,751 129904,38329 129904,113484 66852,151061 3800,113484 3800,38329 "/>
  <polygon id="Mask-Copy-31" class="fil2" points="99080,95866 100814,95393 102075,96654 101602,98389 99868,98862 98607,97600 "/>
  <polygon id="Mask-Copy-40" class="fil3" points="79656,14019 78838,17987 74932,19332 71845,16709 72663,12741 76568,11396 "/>
  <polygon id="Mask-Copy-44" class="fil4" points="92830,123901 92136,123334 92277,122441 93113,122116 93807,122684 93666,123576 "/>
  <polygon class="fil5" points="15661,67310 17757,68243 19621,66875 19390,64575 17295,63642 15430,65010 "/>
  <polygon id="Mask-Copy-31_1" class="fil6" points="5863,99641 8253,103022 6517,106746 2390,107088 0,103707 1736,99983 "/>
  <g id="_695331648">
   <g>
    <path class="fil7" d="M59630 95982l-13219 0 0 -1313 13219 0 657 657 -657 657zm657 -657l0 657 -657 0 657 -657zm0 -38985l0 38985 -1313 0 0 -38985 657 -657 657 657zm-657 -657l657 0 0 657 -657 -657zm-13219 0l13219 0 0 1313 -13219 0 -657 -657 657 -657zm-657 657l0 -657 657 0 -657 657zm0 38985l0 -38985 1313 0 0 38985 -657 657 -657 -657zm657 657l-657 0 0 -657 657 657z"/>
   </g>
   <g>
    <polygon class="fil8" points="72053,56997 61478,56997 61478,55684 72053,55684 "/>
   </g>
   <g>
    <polygon class="fil8" points="61478,94815 72053,94815 72053,96129 61478,96129 "/>
   </g>
   <g>
    <path class="fil9" d="M87390 95982l-13219 0 0 -1313 13219 0 657 657 -657 657zm657 -657l0 657 -657 0 657 -657zm0 -38985l0 38985 -1313 0 0 -38985 657 -657 657 657zm-657 -657l657 0 0 657 -657 -657zm-13219 0l13219 0 0 1313 -13219 0 -657 -657 657 -657zm-657 657l0 -657 657 0 -657 657zm0 38985l0 -38985 1313 0 0 38985 -657 657 -657 -657zm657 657l-657 0 0 -657 657 657z"/>
   </g>
   <g>
    <path class="fil9" d="M66901 92800l0 -1313 0 0 136 -4 134 -10 132 -17 130 -24 128 -30 125 -36 122 -42 120 -48 117 -54 114 -59 111 -65 107 -70 104 -75 100 -80 96 -85 92 -89 88 -94 84 -98 79 -102 74 -106 69 -110 64 -113 59 -117 53 -120 48 -123 42 -126 36 -128 30 -131 23 -133 17 -136 10 -138 4 -140 1313 0 -5 206 -15 203 -25 201 -35 197 -44 194 -53 191 -62 187 -71 182 -79 178 -87 173 -95 168 -103 163 -110 157 -117 152 -124 146 -131 140 -137 133 -144 127 -149 119 -155 112 -161 105 -166 97 -171 89 -176 81 -180 72 -185 63 -189 55 -192 45 -196 36 -199 26 -202 16 -204 5 0 0zm-3962 -4017l1313 0 0 0 4 140 10 138 17 136 23 133 30 131 36 128 42 126 48 123 53 120 59 117 64 113 69 110 74 106 79 102 84 98 88 94 92 89 96 85 100 80 104 75 107 70 111 65 114 59 117 54 120 48 122 42 125 36 128 30 130 24 132 17 134 10 136 4 0 1313 -204 -5 -202 -16 -199 -26 -196 -36 -192 -45 -189 -54 -185 -64 -180 -72 -176 -81 -171 -89 -166 -97 -161 -105 -155 -112 -150 -119 -144 -127 -137 -133 -131 -140 -124 -146 -117 -152 -110 -157 -103 -163 -95 -168 -87 -173 -79 -178 -71 -183 -62 -186 -53 -190 -44 -194 -35 -197 -25 -201 -15 -203 -5 -206 0 0zm3962 -4018l0 1313 0 0 -136 4 -134 10 -132 17 -130 24 -128 30 -125 36 -123 42 -120 48 -117 54 -114 59 -111 65 -107 70 -104 75 -100 80 -96 85 -92 89 -88 94 -83 98 -79 102 -74 106 -69 110 -64 113 -59 117 -53 120 -48 123 -42 126 -36 128 -30 131 -23 133 -17 136 -10 138 -4 140 -1313 0 5 -206 15 -203 25 -201 35 -197 44 -194 53 -191 62 -186 71 -183 79 -178 87 -173 95 -168 103 -163 110 -157 117 -152 124 -146 131 -139 137 -133 144 -126 149 -119 155 -112 161 -105 166 -97 171 -89 176 -81 180 -72 185 -64 189 -55 192 -45 196 -36 199 -26 202 -16 204 -5 0 0zm3961 4018l-1313 0 0 0 -4 -140 -10 -138 -17 -136 -23 -133 -30 -131 -36 -128 -42 -126 -48 -123 -53 -120 -59 -117 -64 -113 -69 -110 -74 -106 -79 -102 -84 -98 -88 -94 -92 -89 -96 -85 -100 -80 -104 -75 -107 -70 -111 -65 -114 -59 -117 -54 -120 -48 -123 -42 -125 -36 -128 -30 -130 -24 -132 -17 -134 -10 -136 -4 0 -1313 204 5 202 16 199 26 196 36 192 45 189 55 185 64 180 72 176 81 171 89 166 97 161 105 155 112 149 119 144 126 137 133 131 139 124 146 117 152 110 157 103 163 95 168 87 173 79 178 71 182 62 186 53 191 44 194 35 197 25 201 15 203 5 206 0 0z"/>
   </g>
   <g>
    <path class="fil7" d="M80120 92800l0 -1313 0 0 136 -4 134 -10 132 -17 130 -24 128 -30 125 -36 122 -42 120 -48 117 -54 114 -59 111 -65 107 -70 104 -75 100 -80 96 -85 92 -89 88 -94 84 -98 79 -102 74 -106 69 -110 64 -113 59 -117 53 -120 48 -123 42 -126 36 -128 30 -131 23 -133 17 -136 10 -138 4 -140 1313 0 -5 206 -15 203 -25 201 -35 197 -44 194 -53 190 -62 186 -71 183 -79 178 -87 173 -95 168 -103 163 -110 157 -117 152 -124 146 -131 140 -137 133 -144 127 -150 119 -155 112 -161 105 -166 97 -171 89 -176 81 -180 72 -185 64 -189 54 -192 45 -196 36 -199 26 -202 16 -204 5 0 0zm-3962 -4017l1313 0 0 0 4 140 10 138 17 136 23 133 30 131 36 128 42 126 48 123 53 120 59 117 64 113 69 110 74 106 79 102 84 98 88 94 92 89 96 85 100 80 104 75 107 70 111 65 114 59 117 54 120 48 122 42 125 36 128 30 130 24 132 17 134 10 136 4 0 1313 -204 -5 -202 -16 -199 -26 -196 -36 -192 -45 -189 -55 -185 -63 -180 -72 -176 -81 -171 -89 -166 -97 -161 -105 -155 -112 -150 -119 -144 -127 -137 -133 -131 -140 -124 -146 -117 -152 -110 -157 -103 -163 -95 -168 -87 -173 -79 -178 -71 -182 -62 -187 -53 -190 -44 -194 -35 -197 -25 -201 -15 -203 -5 -206 0 0zm3962 -4018l0 1313 0 0 -136 4 -134 10 -132 17 -130 24 -128 30 -125 36 -123 42 -120 48 -117 54 -114 59 -111 65 -107 70 -104 75 -100 80 -96 85 -92 89 -88 94 -84 98 -79 102 -74 106 -69 110 -64 113 -59 117 -53 120 -48 123 -42 126 -36 128 -30 131 -23 133 -17 136 -10 138 -4 140 -1313 0 5 -206 15 -203 25 -201 35 -197 44 -194 53 -191 62 -186 71 -182 79 -178 87 -173 95 -168 103 -163 110 -157 117 -152 124 -146 131 -139 137 -133 144 -126 149 -119 155 -112 161 -105 166 -97 171 -89 176 -81 180 -72 185 -64 189 -55 192 -45 196 -36 199 -26 202 -16 204 -5 0 0zm3962 4018l-1313 0 0 0 -4 -140 -10 -138 -17 -136 -23 -133 -30 -131 -36 -128 -42 -126 -48 -123 -53 -120 -59 -117 -64 -113 -69 -110 -74 -106 -79 -102 -83 -98 -88 -94 -92 -89 -96 -85 -100 -80 -104 -75 -107 -70 -111 -65 -114 -59 -117 -54 -120 -48 -123 -42 -125 -36 -128 -30 -130 -24 -132 -17 -134 -10 -136 -4 0 -1313 204 5 202 16 199 26 196 36 192 45 189 55 185 64 180 72 176 81 171 89 166 97 161 105 155 112 149 119 144 126 137 133 131 139 124 146 117 152 110 157 103 163 95 168 87 173 79 178 71 183 62 186 53 191 44 194 35 197 25 201 15 203 5 206 0 0z"/>
   </g>
   <g>
    <path class="fil8" d="M52360 92800l0 -1313 0 0 136 -4 134 -10 132 -17 130 -24 128 -30 125 -36 122 -42 120 -48 117 -54 114 -59 111 -65 108 -70 104 -75 100 -80 96 -85 92 -89 88 -94 84 -98 79 -102 74 -106 69 -110 64 -113 59 -117 53 -120 48 -123 42 -126 36 -128 30 -131 23 -133 17 -136 10 -138 4 -140 1313 0 -5 206 -15 203 -25 201 -35 197 -44 194 -53 190 -62 186 -71 183 -79 178 -87 173 -95 168 -103 163 -110 157 -117 152 -124 146 -131 140 -137 133 -144 126 -149 119 -155 112 -161 105 -166 97 -171 89 -176 81 -180 72 -185 63 -189 55 -192 45 -196 36 -199 26 -202 16 -204 5 0 0zm-3962 -4017l1313 0 0 0 4 140 10 138 17 136 23 133 30 131 36 128 42 126 48 123 53 120 59 117 64 113 69 110 74 106 79 102 84 98 88 94 92 89 96 85 100 80 104 75 107 70 111 65 114 59 117 54 120 48 122 42 125 36 128 30 130 24 132 17 134 10 136 4 0 1313 -204 -5 -202 -16 -199 -26 -196 -36 -192 -45 -189 -54 -185 -64 -180 -72 -176 -81 -171 -89 -166 -97 -161 -105 -155 -112 -150 -119 -144 -127 -137 -133 -131 -140 -124 -146 -117 -152 -110 -157 -103 -163 -95 -168 -87 -173 -79 -178 -71 -183 -62 -186 -53 -190 -44 -194 -35 -197 -25 -201 -15 -203 -5 -206 0 0zm3962 -4018l0 1313 0 0 -136 4 -134 10 -132 17 -130 24 -128 30 -125 36 -123 42 -120 48 -117 54 -114 59 -111 65 -107 70 -104 75 -100 80 -96 85 -92 89 -88 94 -83 98 -79 102 -74 106 -69 110 -64 113 -59 117 -53 120 -48 123 -42 126 -36 128 -30 131 -23 133 -17 136 -10 138 -4 140 -1313 0 5 -206 15 -203 25 -201 35 -197 44 -194 53 -191 62 -186 71 -183 79 -178 87 -173 95 -168 103 -163 110 -157 117 -152 124 -146 131 -139 137 -133 144 -126 149 -119 155 -112 161 -105 166 -97 171 -89 176 -81 180 -72 185 -64 189 -55 192 -45 196 -36 199 -26 202 -16 204 -5 0 0zm3962 4018l-1313 0 0 0 -4 -140 -10 -138 -17 -136 -23 -133 -30 -131 -36 -128 -42 -126 -48 -123 -53 -120 -59 -117 -64 -113 -69 -110 -74 -106 -79 -102 -83 -98 -88 -94 -92 -89 -96 -85 -100 -80 -104 -75 -108 -70 -111 -65 -114 -59 -117 -54 -120 -48 -123 -42 -125 -36 -128 -30 -130 -24 -132 -17 -134 -10 -136 -4 0 -1313 204 5 202 16 199 26 196 36 192 45 189 55 185 64 180 72 176 81 171 89 166 97 161 105 155 112 149 119 144 126 137 133 131 139 124 146 117 152 110 157 103 163 95 168 87 173 79 178 71 183 62 186 53 191 44 194 35 197 25 201 15 203 5 206 0 0z"/>
   </g>
   <g>
    <polygon class="fil7" points="57647,82113 46411,82113 46411,80800 57647,80800 "/>
   </g>
   <g>
    <polygon class="fil8" points="71528,82113 60952,82113 60952,80800 71528,80800 "/>
   </g>
   <g>
    <polygon class="fil9" points="86729,82113 75493,82113 75493,80800 86729,80800 "/>
   </g>
   <g>
    <path class="fil9" d="M56987 79783l-7932 0 0 -1313 7932 0 657 657 -657 657zm657 -657l0 657 -657 0 657 -657zm0 -18820l0 18820 -1313 0 0 -18820 657 -657 657 657zm-657 -657l657 0 0 657 -657 -657zm-7932 0l7932 0 0 1313 -7932 0 -657 -657 657 -657zm-657 657l0 -657 657 0 -657 657zm0 18820l0 -18820 1313 0 0 18820 -657 657 -657 -657zm657 657l-657 0 0 -657 657 657z"/>
   </g>
   <g>
    <polygon class="fil7" points="53021,64928 51699,64928 51699,63615 53021,63615 "/>
   </g>
   <g>
    <polygon class="fil7" points="53021,75504 51699,75504 51699,74190 53021,74190 "/>
   </g>
   <g>
    <polygon class="fil7" points="54343,67572 50377,67572 50377,66259 54343,66259 "/>
   </g>
   <g>
    <polygon class="fil7" points="54343,70216 50377,70216 50377,68902 54343,68902 "/>
   </g>
   <g>
    <polygon class="fil7" points="54343,72860 50377,72860 50377,71546 54343,71546 "/>
   </g>
   <g>
    <path class="fil7" d="M70205 79783l-7931 0 0 -1313 7931 0 657 657 -657 657zm657 -657l0 657 -657 0 657 -657zm0 -18820l0 18820 -1313 0 0 -18820 657 -657 657 657zm-657 -657l657 0 0 657 -657 -657zm-7931 0l7931 0 0 1313 -7931 0 -657 -657 657 -657zm-657 657l0 -657 657 0 -657 657zm0 18820l0 -18820 1313 0 0 18820 -657 657 -657 -657zm657 657l-657 0 0 -657 657 657z"/>
   </g>
   <g>
    <polygon class="fil9" points="67562,64928 66240,64928 66240,63615 67562,63615 "/>
   </g>
   <g>
    <polygon class="fil9" points="67562,75504 66240,75504 66240,74190 67562,74190 "/>
   </g>
   <g>
    <polygon class="fil9" points="68884,67572 64918,67572 64918,66259 68884,66259 "/>
   </g>
   <g>
    <polygon class="fil9" points="68884,70216 64918,70216 64918,68902 68884,68902 "/>
   </g>
   <g>
    <polygon class="fil9" points="68884,72860 64918,72860 64918,71546 68884,71546 "/>
   </g>
   <g>
    <path class="fil8" d="M84747 79783l-7932 0 0 -1313 7932 0 657 657 -657 657zm657 -657l0 657 -657 0 657 -657zm0 -18820l0 18820 -1313 0 0 -18820 657 -657 657 657zm-657 -657l657 0 0 657 -657 -657zm-7932 0l7932 0 0 1313 -7932 0 -657 -657 657 -657zm-657 657l0 -657 657 0 -657 657zm0 18820l0 -18820 1313 0 0 18820 -657 657 -657 -657zm657 657l-657 0 0 -657 657 657z"/>
   </g>
   <g>
    <polygon class="fil7" points="80781,64928 79459,64928 79459,63615 80781,63615 "/>
   </g>
   <g>
    <polygon class="fil7" points="80781,75504 79459,75504 79459,74190 80781,74190 "/>
   </g>
   <g>
    <polygon class="fil7" points="82103,67572 78137,67572 78137,66259 82103,66259 "/>
   </g>
   <g>
    <polygon class="fil7" points="82103,70216 78137,70216 78137,68902 82103,68902 "/>
   </g>
   <g>
    <polygon class="fil7" points="82103,72860 78137,72860 78137,71546 82103,71546 "/>
   </g>
  </g>
 </g>
</svg>
