<?xml version="1.0" encoding="UTF-8" ?>
<!DOCTYPE svg PUBLIC "-//W3C//DTD SVG 1.1//EN" "http://www.w3.org/Graphics/SVG/1.1/DTD/svg11.dtd">
<svg width="900pt" height="500pt" viewBox="0 0 900 500" version="1.1" xmlns="http://www.w3.org/2000/svg">
<g id="#008cd7ff">
<path fill="#008cd7" opacity="1.00" d=" M 372.22 74.38 C 421.82 73.92 471.46 74.33 521.07 74.17 C 524.50 73.70 528.34 76.12 527.93 79.90 C 528.00 106.27 527.90 132.64 527.98 159.02 C 527.90 160.94 528.10 163.16 526.68 164.69 C 525.26 166.30 522.98 166.46 520.99 166.49 C 472.66 166.48 424.33 166.44 376.01 166.50 C 373.68 166.47 370.98 166.56 369.25 164.71 C 367.74 163.23 367.98 160.95 367.88 159.02 C 367.96 132.67 367.85 106.32 367.93 79.98 C 367.65 77.32 369.62 74.84 372.22 74.38 M 473.48 106.55 C 468.63 107.81 466.59 114.35 469.67 118.23 C 473.06 122.50 479.58 121.89 483.22 125.79 C 485.90 129.15 483.14 134.45 478.95 134.61 C 474.43 135.84 471.01 132.43 468.14 129.55 C 466.08 129.73 466.94 132.19 467.78 133.14 C 471.21 137.76 478.12 138.70 483.10 136.18 C 487.66 133.79 488.60 126.64 484.81 123.16 C 481.28 119.89 475.99 119.75 472.31 116.72 C 469.41 113.88 472.16 108.90 475.96 108.95 C 480.11 107.96 482.72 111.73 486.08 113.27 C 487.26 111.15 485.51 109.34 483.92 108.14 C 480.97 105.94 476.95 105.40 473.48 106.55 M 409.90 106.87 C 409.96 116.79 409.37 126.78 410.17 136.67 C 414.90 137.11 420.00 137.42 424.42 135.35 C 428.85 133.03 430.23 127.61 430.36 122.98 C 430.54 117.91 429.72 111.87 425.21 108.76 C 420.64 105.92 415.00 106.84 409.90 106.87 M 436.04 106.92 C 435.53 116.90 435.59 126.99 436.02 136.99 C 436.55 137.04 437.63 137.14 438.17 137.19 C 438.97 129.43 438.35 121.60 438.47 113.81 C 441.85 119.92 444.51 126.43 448.23 132.35 C 449.86 131.59 450.54 129.85 451.36 128.38 C 453.80 123.46 456.31 118.58 458.83 113.70 C 458.88 121.45 458.38 129.25 459.04 136.98 C 459.56 137.04 460.59 137.17 461.11 137.23 C 462.10 129.56 461.22 121.76 461.55 114.04 C 461.31 111.28 462.34 107.95 460.11 105.79 C 455.52 112.58 452.69 120.38 448.48 127.41 C 445.44 121.14 442.27 114.93 439.13 108.71 C 438.32 107.87 437.47 104.60 436.04 106.92 Z" />
<path fill="#008cd7" opacity="1.00" d=" M 412.80 109.46 C 417.21 109.52 422.98 108.98 425.59 113.41 C 428.19 118.36 428.13 124.72 425.88 129.79 C 423.48 134.66 417.34 134.13 412.79 134.15 C 412.78 125.92 412.77 117.69 412.80 109.46 Z" />
</g>
<g id="#f6f6f6ff">
<path fill="#f6f6f6" opacity="1.00" d=" M 358.96 74.00 C 358.34 69.97 361.88 66.11 365.98 66.60 C 420.65 66.58 475.33 66.58 530.00 66.60 C 533.64 66.19 537.09 69.28 536.90 72.97 C 537.01 104.97 536.88 136.97 536.96 168.97 C 537.51 172.70 535.23 177.22 531.03 177.15 C 513.48 177.33 495.92 177.15 478.36 177.22 C 478.37 180.21 478.37 183.20 478.37 186.19 C 458.11 186.18 437.85 186.19 417.59 186.19 C 417.59 183.20 417.59 180.20 417.60 177.22 C 400.07 177.17 382.54 177.31 365.01 177.16 C 361.35 177.25 358.53 173.58 358.96 170.07 C 358.96 138.05 358.98 106.03 358.96 74.00 M 372.22 74.38 C 369.62 74.84 367.65 77.32 367.93 79.98 C 367.85 106.32 367.96 132.67 367.88 159.02 C 367.98 160.95 367.74 163.23 369.25 164.71 C 370.98 166.56 373.68 166.47 376.01 166.50 C 424.33 166.44 472.66 166.48 520.99 166.49 C 522.98 166.46 525.26 166.30 526.68 164.69 C 528.10 163.16 527.90 160.94 527.98 159.02 C 527.90 132.64 528.00 106.27 527.93 79.90 C 528.34 76.12 524.50 73.70 521.07 74.17 C 471.46 74.33 421.82 73.92 372.22 74.38 Z" />
<path fill="#f6f6f6" opacity="1.00" d=" M 473.48 106.55 C 476.95 105.40 480.97 105.94 483.92 108.14 C 485.51 109.34 487.26 111.15 486.08 113.27 C 482.72 111.73 480.11 107.96 475.96 108.95 C 472.16 108.90 469.41 113.88 472.31 116.72 C 475.99 119.75 481.28 119.89 484.81 123.16 C 488.60 126.64 487.66 133.79 483.10 136.18 C 478.12 138.70 471.21 137.76 467.78 133.14 C 466.94 132.19 466.08 129.73 468.14 129.55 C 471.01 132.43 474.43 135.84 478.95 134.61 C 483.14 134.45 485.90 129.15 483.22 125.79 C 479.58 121.89 473.06 122.50 469.67 118.23 C 466.59 114.35 468.63 107.81 473.48 106.55 Z" />
<path fill="#f6f6f6" opacity="1.00" d=" M 409.90 106.87 C 415.00 106.84 420.64 105.92 425.21 108.76 C 429.72 111.87 430.54 117.91 430.36 122.98 C 430.23 127.61 428.85 133.03 424.42 135.35 C 420.00 137.42 414.90 137.11 410.17 136.67 C 409.37 126.78 409.96 116.79 409.90 106.87 M 412.80 109.46 C 412.77 117.69 412.78 125.92 412.79 134.15 C 417.34 134.13 423.48 134.66 425.88 129.79 C 428.13 124.72 428.19 118.36 425.59 113.41 C 422.98 108.98 417.21 109.52 412.80 109.46 Z" />
<path fill="#f6f6f6" opacity="1.00" d=" M 436.04 106.92 C 437.47 104.60 438.32 107.87 439.13 108.71 C 442.27 114.93 445.44 121.14 448.48 127.41 C 452.69 120.38 455.52 112.58 460.11 105.79 C 462.34 107.95 461.31 111.28 461.55 114.04 C 461.22 121.76 462.10 129.56 461.11 137.23 C 460.59 137.17 459.56 137.04 459.04 136.98 C 458.38 129.25 458.88 121.45 458.83 113.70 C 456.31 118.58 453.80 123.46 451.36 128.38 C 450.54 129.85 449.86 131.59 448.23 132.35 C 444.51 126.43 441.85 119.92 438.47 113.81 C 438.35 121.60 438.97 129.43 438.17 137.19 C 437.63 137.14 436.55 137.04 436.02 136.99 C 435.59 126.99 435.53 116.90 436.04 106.92 Z" />
<path fill="#f6f6f6" opacity="1.00" d=" M 343.63 182.97 C 345.39 181.62 347.51 180.91 349.72 180.70 C 348.33 182.78 345.92 183.13 343.63 182.97 Z" />
<path fill="#f6f6f6" opacity="1.00" d=" M 547.97 180.79 C 550.18 180.95 552.54 181.32 553.93 183.29 C 551.70 183.10 549.41 182.67 547.97 180.79 Z" />
<path fill="#f6f6f6" opacity="1.00" d=" M 336.17 184.61 C 337.81 183.92 339.48 183.29 341.17 182.71 C 341.61 183.00 342.48 183.59 342.91 183.88 C 340.73 184.40 338.35 186.05 336.17 184.61 Z" />
<path fill="#f6f6f6" opacity="1.00" d=" M 554.60 183.09 C 556.99 183.19 560.29 182.90 561.31 185.70 C 558.93 185.22 556.60 184.47 554.60 183.09 Z" />
<path fill="#f6f6f6" opacity="1.00" d=" M 331.31 186.91 C 330.31 185.01 334.48 183.70 334.73 185.86 C 334.45 187.28 332.35 187.85 331.31 186.91 Z" />
<path fill="#f6f6f6" opacity="1.00" d=" M 563.28 185.21 C 564.30 184.18 566.36 184.90 566.68 186.27 C 566.45 188.42 562.26 187.14 563.28 185.21 Z" />
<path fill="#f6f6f6" opacity="1.00" d=" M 320.72 189.88 C 323.18 187.70 326.48 186.94 329.69 186.83 C 327.26 189.09 323.90 189.65 320.72 189.88 Z" />
<path fill="#f6f6f6" opacity="1.00" d=" M 568.09 186.78 C 571.18 187.10 574.68 187.46 576.84 190.01 C 573.75 189.55 570.38 189.15 568.09 186.78 Z" />
<path fill="#f6f6f6" opacity="1.00" d=" M 313.01 192.21 C 314.59 190.71 316.64 189.98 318.64 189.22 C 318.80 189.68 319.12 190.58 319.28 191.03 C 317.21 191.52 315.12 191.95 313.01 192.21 Z" />
<path fill="#f6f6f6" opacity="1.00" d=" M 577.56 189.88 C 580.22 189.46 582.89 190.22 584.73 192.26 C 582.15 192.14 579.68 191.33 577.56 189.88 Z" />
<path fill="#f6f6f6" opacity="1.00" d=" M 308.24 192.45 C 308.98 191.47 311.34 191.12 311.60 192.68 C 311.47 194.70 306.97 194.79 308.24 192.45 Z" />
<path fill="#f6f6f6" opacity="1.00" d=" M 586.39 192.11 C 587.38 191.13 589.51 191.65 589.81 193.08 C 589.62 195.27 585.44 194.03 586.39 192.11 Z" />
<path fill="#f6f6f6" opacity="1.00" d=" M 297.56 196.62 C 299.74 194.90 302.44 194.16 305.05 193.36 C 305.26 193.74 305.68 194.49 305.89 194.87 C 303.15 195.63 300.41 196.45 297.56 196.62 Z" />
<path fill="#f6f6f6" opacity="1.00" d=" M 592.37 193.36 C 594.95 194.21 598.00 194.46 599.74 196.82 C 597.09 196.37 594.52 195.61 591.95 194.86 C 592.05 194.49 592.26 193.74 592.37 193.36 Z" />
<path fill="#f6f6f6" opacity="1.00" d=" M 649.32 202.38 C 651.58 198.96 654.18 195.70 657.11 192.82 C 658.75 191.74 660.27 193.52 661.56 194.35 C 668.50 200.08 675.68 205.56 682.49 211.45 C 684.36 212.97 682.51 215.13 681.45 216.50 C 674.56 224.95 667.70 233.43 660.86 241.93 C 659.84 243.27 658.09 245.02 656.39 243.58 C 651.76 240.23 647.52 236.38 643.01 232.89 C 640.75 230.97 638.12 229.38 636.42 226.91 C 636.10 225.42 637.49 224.35 638.18 223.20 C 642.02 218.46 645.85 213.72 649.73 209.02 C 649.55 206.82 648.76 204.55 649.32 202.38 Z" />
<path fill="#f6f6f6" opacity="1.00" d=" M 290.05 199.09 C 291.65 197.14 294.14 196.60 296.47 196.05 C 295.68 198.89 292.28 198.48 290.05 199.09 Z" />
<path fill="#f6f6f6" opacity="1.00" d=" M 601.49 196.91 C 603.38 195.53 606.22 197.58 607.71 199.04 C 605.75 198.39 602.59 198.97 601.49 196.91 Z" />
<path fill="#f6f6f6" opacity="1.00" d=" M 287.43 198.35 C 290.15 199.07 286.61 202.03 285.16 200.64 C 284.01 199.32 286.26 198.08 287.43 198.35 Z" />
<path fill="#f6f6f6" opacity="1.00" d=" M 394.40 202.10 C 394.90 199.69 397.01 198.63 399.19 198.07 C 398.02 199.86 396.28 201.13 394.40 202.10 Z" />
<path fill="#f6f6f6" opacity="1.00" d=" M 498.70 197.90 C 500.64 198.73 502.96 199.64 503.22 202.09 C 501.35 201.13 499.48 199.96 498.70 197.90 Z" />
<path fill="#f6f6f6" opacity="1.00" d=" M 608.28 198.83 C 610.27 198.65 612.52 198.84 613.42 200.96 C 611.58 200.56 609.84 199.85 608.28 198.83 Z" />
<path fill="#f6f6f6" opacity="1.00" d=" M 206.23 214.12 C 210.29 209.07 214.81 204.39 219.17 199.60 C 220.95 200.90 222.73 202.25 224.20 203.91 C 218.96 208.67 213.16 212.78 207.85 217.46 C 207.26 216.36 206.72 215.25 206.23 214.12 Z" />
<path fill="#f6f6f6" opacity="1.00" d=" M 274.61 203.60 C 276.57 201.01 280.05 200.72 283.03 200.39 C 281.19 203.03 277.48 202.96 274.61 203.60 Z" />
<path fill="#f6f6f6" opacity="1.00" d=" M 614.48 200.28 C 617.28 200.66 620.01 201.45 622.71 202.32 C 622.47 202.66 621.99 203.34 621.75 203.68 C 619.21 202.84 616.28 202.46 614.48 200.28 Z" />
<path fill="#f6f6f6" opacity="1.00" d=" M 230.40 201.46 C 231.43 200.77 232.38 202.30 233.11 202.86 C 237.02 207.31 240.48 212.13 244.33 216.63 C 246.30 219.53 250.88 217.27 253.02 220.00 C 255.48 222.92 258.10 225.80 260.03 229.12 C 259.93 230.96 258.19 231.93 257.01 233.06 C 251.13 237.83 245.21 242.55 239.38 247.37 C 238.02 248.44 236.69 249.62 235.05 250.22 C 233.58 250.31 232.82 248.85 231.91 247.99 C 225.80 240.48 219.76 232.91 213.62 225.43 C 211.97 223.40 210.17 221.44 209.11 219.03 C 211.30 215.89 214.70 213.94 217.53 211.47 C 221.87 208.20 225.74 204.27 230.40 201.46 Z" />
<path fill="#f6f6f6" opacity="1.00" d=" M 386.66 206.29 C 388.22 204.33 390.41 203.03 392.64 201.96 C 391.74 204.48 389.37 206.33 386.66 206.29 Z" />
<path fill="#f6f6f6" opacity="1.00" d=" M 504.45 202.48 C 507.25 202.54 509.43 204.45 511.27 206.36 C 508.47 206.29 506.30 204.36 504.45 202.48 Z" />
<path fill="#f6f6f6" opacity="1.00" d=" M 267.26 205.98 C 268.52 203.57 271.29 203.43 273.67 203.07 C 272.10 205.03 269.57 205.49 267.26 205.98 Z" />
<path fill="#f6f6f6" opacity="1.00" d=" M 624.13 203.04 C 626.47 203.46 629.26 203.63 630.64 205.92 C 628.26 205.52 625.65 205.14 624.13 203.04 Z" />
<path fill="#f6f6f6" opacity="1.00" d=" M 423.65 209.41 C 424.09 207.21 425.21 205.25 426.82 203.69 C 426.94 206.12 425.45 207.99 423.65 209.41 Z" />
<path fill="#f6f6f6" opacity="1.00" d=" M 470.41 205.26 C 470.80 204.98 471.60 204.43 472.00 204.15 C 472.74 205.87 473.46 207.61 474.04 209.40 C 472.74 208.10 471.55 206.69 470.41 205.26 Z" />
<path fill="#f6f6f6" opacity="1.00" d=" M 263.36 205.23 C 265.60 204.26 266.07 207.58 263.78 207.65 C 261.56 208.55 261.11 205.35 263.36 205.23 Z" />
<path fill="#f6f6f6" opacity="1.00" d=" M 448.36 204.04 C 450.12 207.28 450.18 211.76 448.34 214.98 C 447.94 211.35 447.96 207.67 448.36 204.04 Z" />
<path fill="#f6f6f6" opacity="1.00" d=" M 631.62 205.33 C 633.34 205.60 635.02 206.04 636.68 206.60 C 634.83 207.93 632.83 207.00 631.62 205.33 Z" />
<path fill="#f6f6f6" opacity="1.00" d=" M 255.03 207.90 C 256.83 207.61 258.63 207.38 260.45 207.27 C 258.90 208.27 257.22 209.06 255.55 209.83 C 255.42 209.35 255.16 208.38 255.03 207.90 Z" />
<path fill="#f6f6f6" opacity="1.00" d=" M 383.36 207.30 C 386.37 206.25 384.94 210.50 382.73 210.06 C 380.84 209.90 382.14 207.45 383.36 207.30 Z" />
<path fill="#f6f6f6" opacity="1.00" d=" M 512.05 207.51 C 514.20 206.70 515.50 208.89 516.61 210.30 C 514.83 209.83 513.16 209.00 512.05 207.51 Z" />
<path fill="#f6f6f6" opacity="1.00" d=" M 637.34 207.13 C 639.18 207.32 641.02 207.66 642.84 208.05 C 642.60 208.49 642.12 209.38 641.88 209.82 C 640.29 209.04 638.71 208.24 637.34 207.13 Z" />
<path fill="#f6f6f6" opacity="1.00" d=" M 743.69 231.32 C 741.12 221.35 748.61 209.81 759.04 208.84 C 766.73 207.87 774.15 213.01 777.09 219.96 C 780.54 227.30 778.48 236.67 772.03 241.68 C 779.55 244.54 786.60 249.19 791.10 255.98 C 794.58 261.24 796.67 267.59 796.36 273.93 C 795.99 278.50 791.44 281.72 787.05 281.62 C 779.03 281.75 771.00 281.54 762.98 281.70 C 767.30 271.54 761.25 259.99 752.23 254.75 C 756.12 248.04 754.49 238.57 747.90 234.19 C 746.51 233.21 744.99 232.41 743.69 231.32 Z" />
<path fill="#f6f6f6" opacity="1.00" d=" M 422.23 209.98 C 422.64 210.56 423.06 211.14 423.48 211.73 C 422.27 213.27 421.07 214.83 419.72 216.25 C 420.13 214.00 421.15 211.96 422.23 209.98 Z" />
<path fill="#f6f6f6" opacity="1.00" d=" M 474.17 211.67 C 474.60 211.15 475.05 210.63 475.49 210.11 C 476.56 212.06 477.60 214.04 478.27 216.18 C 476.72 214.84 475.42 213.26 474.17 211.67 Z" />
<path fill="#f6f6f6" opacity="1.00" d=" M 372.18 216.42 C 373.76 213.23 377.15 211.60 380.40 210.65 C 378.26 213.30 375.33 215.18 372.18 216.42 Z" />
<path fill="#f6f6f6" opacity="1.00" d=" M 517.39 210.56 C 520.60 211.68 523.90 213.35 525.67 216.41 C 522.48 215.20 519.33 213.45 517.39 210.56 Z" />
<path fill="#f6f6f6" opacity="1.00" d=" M 122.08 220.03 C 125.71 214.08 133.08 210.50 139.99 212.07 C 150.27 214.11 157.01 225.99 153.82 235.91 C 152.87 239.44 150.45 242.28 147.89 244.78 C 160.92 249.04 171.88 260.94 172.24 275.08 C 172.84 279.94 168.61 284.36 163.84 284.54 C 155.40 284.81 146.96 284.47 138.52 284.68 C 143.54 274.76 136.97 262.92 128.07 257.75 C 130.30 253.29 131.07 247.88 128.76 243.28 C 127.07 239.05 123.17 236.43 119.27 234.45 C 118.69 229.49 119.20 224.25 122.08 220.03 Z" />
<path fill="#f6f6f6" opacity="1.00" d=" M 364.65 221.18 C 366.14 218.89 368.41 216.93 371.31 217.11 C 369.41 218.94 367.18 220.40 364.65 221.18 Z" />
<path fill="#f6f6f6" opacity="1.00" d=" M 418.26 217.31 C 420.29 217.57 418.57 221.27 416.95 220.44 C 416.00 219.38 417.02 217.57 418.26 217.31 Z" />
<path fill="#f6f6f6" opacity="1.00" d=" M 448.08 217.13 C 449.68 215.94 450.61 218.95 449.48 219.88 C 447.86 221.11 446.91 218.05 448.08 217.13 Z" />
<path fill="#f6f6f6" opacity="1.00" d=" M 480.59 221.47 C 479.89 220.01 477.97 218.54 479.00 216.78 C 480.37 217.99 481.08 219.64 480.59 221.47 Z" />
<path fill="#f6f6f6" opacity="1.00" d=" M 526.50 216.61 C 529.06 217.39 531.94 218.60 532.78 221.40 C 530.34 220.32 528.04 218.84 526.50 216.61 Z" />
<path fill="#f6f6f6" opacity="1.00" d=" M 361.40 221.96 C 364.22 221.10 362.48 225.04 360.58 224.59 C 358.87 224.25 360.34 222.13 361.40 221.96 Z" />
<path fill="#f6f6f6" opacity="1.00" d=" M 411.19 228.43 C 412.62 225.99 414.07 223.50 416.24 221.63 C 415.63 224.36 414.12 226.73 412.70 229.09 C 412.32 228.93 411.56 228.60 411.19 228.43 Z" />
<path fill="#f6f6f6" opacity="1.00" d=" M 481.68 221.53 C 483.90 223.80 485.63 226.57 486.43 229.67 C 483.83 227.70 481.97 224.82 481.68 221.53 Z" />
<path fill="#f6f6f6" opacity="1.00" d=" M 534.91 222.02 C 536.16 221.20 537.98 222.48 538.08 223.87 C 537.39 225.90 533.67 223.67 534.91 222.02 Z" />
<path fill="#f6f6f6" opacity="1.00" d=" M 448.30 222.04 C 450.24 224.55 449.84 228.03 448.50 230.72 C 447.96 227.86 447.95 224.93 448.30 222.04 Z" />
<path fill="#f6f6f6" opacity="1.00" d=" M 350.32 230.99 C 351.73 227.73 355.18 226.19 358.32 225.06 C 356.40 227.89 353.32 229.54 350.32 230.99 Z" />
<path fill="#f6f6f6" opacity="1.00" d=" M 539.66 224.90 C 542.63 226.34 545.90 227.85 547.53 230.89 C 544.56 229.51 540.96 228.20 539.66 224.90 Z" />
<path fill="#f6f6f6" opacity="1.00" d=" M 673.61 230.55 C 676.12 230.31 678.02 232.08 678.57 234.48 C 676.79 233.33 675.14 232.00 673.61 230.55 Z" />
<path fill="#f6f6f6" opacity="1.00" d=" M 342.58 235.38 C 344.33 233.35 346.57 231.78 349.17 231.08 C 347.73 233.47 345.35 235.02 342.58 235.38 Z" />
<path fill="#f6f6f6" opacity="1.00" d=" M 406.99 236.33 C 407.76 233.95 408.92 231.56 411.26 230.37 C 410.44 232.71 409.46 235.28 406.99 236.33 Z" />
<path fill="#f6f6f6" opacity="1.00" d=" M 486.53 230.28 C 488.78 231.68 490.09 234.02 490.44 236.62 C 488.45 235.00 487.14 232.75 486.53 230.28 Z" />
<path fill="#f6f6f6" opacity="1.00" d=" M 548.73 230.94 C 551.09 231.91 553.22 233.35 555.06 235.12 C 552.30 235.04 549.74 233.59 548.73 230.94 Z" />
<path fill="#f6f6f6" opacity="1.00" d=" M 448.50 231.32 C 449.80 233.62 449.97 236.44 448.41 238.66 C 448.02 236.22 448.05 233.75 448.50 231.32 Z" />
<path fill="#f6f6f6" opacity="1.00" d=" M 640.15 232.58 C 645.64 236.80 650.79 241.44 656.43 245.46 C 655.92 246.48 655.40 247.48 654.84 248.47 C 650.44 246.70 646.49 244.03 642.34 241.78 C 640.59 240.72 638.63 239.86 637.32 238.22 C 638.07 236.25 639.14 234.42 640.15 232.58 Z" />
<path fill="#f6f6f6" opacity="1.00" d=" M 678.49 233.51 C 680.41 234.38 682.06 235.73 683.41 237.35 C 681.02 237.23 679.23 235.76 678.49 233.51 Z" />
<path fill="#f6f6f6" opacity="1.00" d=" M 733.55 236.51 C 740.16 232.44 749.57 237.40 750.28 245.03 C 751.18 249.32 748.56 252.99 746.14 256.21 C 752.01 258.83 757.64 263.10 759.52 269.55 C 760.32 272.79 761.42 277.08 758.72 279.74 C 756.73 281.86 753.63 281.65 750.99 281.68 C 740.99 281.58 731.00 281.72 721.00 281.63 C 717.86 281.82 714.48 279.41 714.78 276.02 C 714.62 266.49 722.30 258.85 730.88 255.99 C 724.77 250.71 726.32 239.97 733.55 236.51 Z" />
<path fill="#f6f6f6" opacity="1.00" d=" M 338.12 238.74 C 337.36 237.29 339.71 235.66 340.96 236.46 C 341.72 237.89 339.35 239.53 338.12 238.74 Z" />
<path fill="#f6f6f6" opacity="1.00" d=" M 556.89 236.47 C 558.09 235.85 559.73 236.97 559.89 238.25 C 559.26 240.14 555.75 237.97 556.89 236.47 Z" />
<path fill="#f6f6f6" opacity="1.00" d=" M 214.71 240.79 C 216.19 239.45 217.74 238.17 219.41 237.06 C 218.98 239.33 217.25 241.35 214.71 240.79 Z" />
<path fill="#f6f6f6" opacity="1.00" d=" M 490.49 239.07 C 490.83 238.58 491.50 237.58 491.83 237.09 C 492.48 238.45 493.14 239.81 493.78 241.19 C 492.64 240.54 491.55 239.82 490.49 239.07 Z" />
<path fill="#f6f6f6" opacity="1.00" d=" M 683.93 237.23 C 685.17 237.04 686.48 238.67 685.60 239.76 C 684.09 241.11 681.70 237.78 683.93 237.23 Z" />
<path fill="#f6f6f6" opacity="1.00" d=" M 103.10 247.93 C 104.25 240.96 112.42 235.98 119.03 238.90 C 124.19 240.81 127.15 246.73 125.98 252.03 C 125.52 254.80 123.49 256.87 121.99 259.12 C 127.62 261.83 133.26 265.77 135.16 272.06 C 136.24 275.59 137.39 280.49 134.05 283.16 C 132.14 284.85 129.41 284.58 127.04 284.65 C 116.73 284.52 106.40 284.76 96.09 284.55 C 92.76 284.57 89.93 281.34 90.63 278.02 C 91.01 268.88 98.41 261.79 106.67 258.98 C 103.91 256.05 102.07 252.00 103.10 247.93 Z" />
<path fill="#f6f6f6" opacity="1.00" d=" M 405.37 237.75 C 407.94 236.83 406.98 241.32 404.95 241.01 C 403.35 240.55 404.29 238.27 405.37 237.75 Z" />
<path fill="#f6f6f6" opacity="1.00" d=" M 328.22 245.38 C 329.87 242.31 333.12 240.57 336.37 239.67 C 334.29 242.35 331.36 244.20 328.22 245.38 Z" />
<path fill="#f6f6f6" opacity="1.00" d=" M 448.39 239.38 C 449.72 241.06 449.71 242.98 448.35 244.64 C 448.23 242.88 448.25 241.13 448.39 239.38 Z" />
<path fill="#f6f6f6" opacity="1.00" d=" M 561.39 239.61 C 564.62 240.62 567.71 242.43 569.61 245.31 C 566.40 244.23 563.33 242.45 561.39 239.61 Z" />
<path fill="#f6f6f6" opacity="1.00" d=" M 686.49 239.63 C 688.66 240.75 690.48 242.46 691.68 244.60 C 689.67 243.53 686.18 242.54 686.49 239.63 Z" />
<path fill="#f6f6f6" opacity="1.00" d=" M 213.56 241.61 C 217.37 239.92 211.24 247.35 211.22 243.38 C 211.94 242.71 212.72 242.12 213.56 241.61 Z" />
<path fill="#f6f6f6" opacity="1.00" d=" M 398.74 249.74 C 399.97 246.95 401.14 243.69 404.16 242.38 C 402.87 245.13 401.73 248.40 398.74 249.74 Z" />
<path fill="#f6f6f6" opacity="1.00" d=" M 493.63 242.18 C 496.45 243.80 497.72 246.89 498.95 249.72 C 495.97 248.30 494.66 245.09 493.63 242.18 Z" />
<path fill="#f6f6f6" opacity="1.00" d=" M 692.06 244.61 C 693.43 244.11 695.55 246.00 694.97 247.41 C 693.59 247.85 691.44 246.04 692.06 244.61 Z" />
<path fill="#f6f6f6" opacity="1.00" d=" M 208.35 245.35 C 209.12 243.81 211.64 245.10 210.35 246.53 C 209.56 248.07 207.01 246.78 208.35 245.35 Z" />
<path fill="#f6f6f6" opacity="1.00" d=" M 320.68 249.98 C 322.31 247.89 324.45 245.96 327.29 246.15 C 325.46 247.98 323.26 249.46 320.68 249.98 Z" />
<path fill="#f6f6f6" opacity="1.00" d=" M 448.53 245.30 C 449.80 248.00 450.30 251.50 448.28 253.97 C 447.94 251.08 447.98 248.15 448.53 245.30 Z" />
<path fill="#f6f6f6" opacity="1.00" d=" M 570.43 245.81 C 573.14 246.21 575.65 247.68 576.74 250.30 C 574.31 249.31 572.08 247.85 570.43 245.81 Z" />
<path fill="#f6f6f6" opacity="1.00" d=" M 202.50 252.07 C 203.03 249.39 205.45 248.03 207.61 246.76 C 206.86 249.31 204.64 250.78 202.50 252.07 Z" />
<path fill="#f6f6f6" opacity="1.00" d=" M 696.19 248.10 C 697.23 246.96 699.29 248.69 698.46 249.95 C 697.40 251.08 695.35 249.35 696.19 248.10 Z" />
<path fill="#f6f6f6" opacity="1.00" d=" M 605.30 249.26 C 607.55 247.87 609.08 250.46 610.17 252.03 C 615.04 259.45 620.24 266.67 624.97 274.19 C 626.32 276.09 623.92 277.58 622.60 278.55 C 613.15 284.79 603.85 291.27 594.39 297.48 C 593.08 298.62 590.99 298.39 590.21 296.77 C 585.94 290.70 581.88 284.48 577.71 278.34 C 577.25 277.12 575.31 275.29 576.92 274.22 C 582.07 269.79 588.24 266.70 593.61 262.53 C 595.52 260.44 594.17 256.54 596.82 254.91 C 599.55 252.90 602.33 250.91 605.30 249.26 Z" />
<path fill="#f6f6f6" opacity="1.00" d=" M 318.50 250.53 C 321.00 251.36 316.72 255.06 315.81 252.91 C 315.91 251.61 317.25 250.59 318.50 250.53 Z" />
<path fill="#f6f6f6" opacity="1.00" d=" M 577.79 251.32 C 578.34 251.12 579.43 250.73 579.97 250.54 C 580.70 251.64 581.43 252.75 582.13 253.87 C 580.66 253.06 579.21 252.20 577.79 251.32 Z" />
<path fill="#f6f6f6" opacity="1.00" d=" M 699.44 250.18 C 701.33 250.97 702.75 252.49 703.50 254.41 C 702.10 253.24 698.52 252.61 699.44 250.18 Z" />
<path fill="#f6f6f6" opacity="1.00" d=" M 394.62 256.72 C 395.34 254.31 396.59 252.01 398.81 250.69 C 398.11 253.11 397.07 255.60 394.62 256.72 Z" />
<path fill="#f6f6f6" opacity="1.00" d=" M 503.18 256.56 C 500.51 255.69 499.20 253.04 499.41 250.37 C 500.93 252.25 502.20 254.34 503.18 256.56 Z" />
<path fill="#f6f6f6" opacity="1.00" d=" M 200.47 251.93 C 203.72 251.31 200.19 256.15 198.46 254.74 C 197.89 253.46 199.50 252.41 200.47 251.93 Z" />
<path fill="#f6f6f6" opacity="1.00" d=" M 309.44 258.10 C 310.01 255.74 312.16 254.67 314.28 253.99 C 313.26 255.97 311.35 257.12 309.44 258.10 Z" />
<path fill="#f6f6f6" opacity="1.00" d=" M 583.59 253.87 C 585.54 254.74 587.69 255.72 588.25 258.02 C 586.32 257.11 584.28 256.06 583.59 253.87 Z" />
<path fill="#f6f6f6" opacity="1.00" d=" M 196.23 255.22 C 198.50 254.40 197.86 258.06 195.97 257.67 C 194.51 257.49 195.13 255.46 196.23 255.22 Z" />
<path fill="#f6f6f6" opacity="1.00" d=" M 448.28 255.05 C 450.01 257.04 450.01 260.02 448.26 262.00 C 448.05 259.68 448.07 257.36 448.28 255.05 Z" />
<path fill="#f6f6f6" opacity="1.00" d=" M 281.89 259.98 C 282.94 258.59 284.50 255.90 286.50 257.50 C 292.32 261.01 297.79 265.09 303.48 268.82 C 305.58 268.35 307.68 267.53 309.86 267.71 C 313.37 269.63 316.72 271.90 319.83 274.42 C 321.61 276.10 319.66 278.14 318.79 279.75 C 314.21 286.51 309.66 293.27 305.11 300.04 C 304.23 301.07 303.48 302.66 301.97 302.79 C 300.36 302.25 298.98 301.23 297.58 300.31 C 288.90 294.33 280.11 288.53 271.40 282.60 C 270.12 281.71 268.08 280.19 269.54 278.53 C 273.45 272.21 277.85 266.21 281.89 259.98 Z" />
<path fill="#f6f6f6" opacity="1.00" d=" M 190.33 261.67 C 190.92 259.23 192.89 258.07 195.20 257.67 C 193.90 259.36 192.27 260.76 190.33 261.67 Z" />
<path fill="#f6f6f6" opacity="1.00" d=" M 393.15 258.02 C 395.65 257.20 394.62 261.59 392.66 261.28 C 390.98 260.82 391.99 258.48 393.15 258.02 Z" />
<path fill="#f6f6f6" opacity="1.00" d=" M 502.75 257.58 C 505.05 258.14 505.90 260.09 505.39 262.26 C 504.40 260.76 503.51 259.20 502.75 257.58 Z" />
<path fill="#f6f6f6" opacity="1.00" d=" M 273.10 258.95 C 275.18 259.51 277.13 260.46 279.11 261.30 C 275.30 267.29 271.05 272.98 267.41 279.07 C 266.34 278.00 264.09 277.19 265.20 275.34 C 267.64 269.81 269.86 264.07 273.10 258.95 Z" />
<path fill="#f6f6f6" opacity="1.00" d=" M 386.63 270.54 C 387.43 267.53 388.61 264.04 391.74 262.74 C 390.63 265.67 389.01 268.45 386.63 270.54 Z" />
<path fill="#f6f6f6" opacity="1.00" d=" M 506.02 262.53 C 508.93 264.17 510.35 267.42 511.06 270.55 C 508.65 268.41 506.94 265.60 506.02 262.53 Z" />
<path fill="#f6f6f6" opacity="1.00" d=" M 448.06 264.19 C 449.64 262.97 450.64 265.95 449.50 266.89 C 447.91 268.17 446.89 265.13 448.06 264.19 Z" />
<path fill="#f6f6f6" opacity="1.00" d=" M 448.28 269.14 C 450.27 271.56 449.84 275.04 448.48 277.65 C 447.97 274.84 447.96 271.97 448.28 269.14 Z" />
<path fill="#f6f6f6" opacity="1.00" d=" M 382.83 277.25 C 382.82 274.65 384.34 272.55 386.12 270.82 C 386.04 273.38 384.59 275.51 382.83 277.25 Z" />
<path fill="#f6f6f6" opacity="1.00" d=" M 515.18 277.17 C 513.83 275.68 510.18 273.31 512.38 271.28 C 513.76 273.00 514.69 275.02 515.18 277.17 Z" />
<path fill="#f6f6f6" opacity="1.00" d=" M 381.39 278.28 C 383.41 278.86 381.34 282.64 379.70 281.55 C 378.86 280.33 379.96 278.38 381.39 278.28 Z" />
<path fill="#f6f6f6" opacity="1.00" d=" M 515.99 278.47 C 517.48 277.95 518.84 280.45 517.77 281.52 C 516.25 282.07 514.83 279.53 515.99 278.47 Z" />
<path fill="#f6f6f6" opacity="1.00" d=" M 448.26 278.13 C 450.06 280.08 449.95 283.04 448.28 285.04 C 448.07 282.74 448.06 280.43 448.26 278.13 Z" />
<path fill="#f6f6f6" opacity="1.00" d=" M 378.55 282.53 C 379.43 285.01 377.50 286.85 375.74 288.25 C 376.30 286.17 377.31 284.27 378.55 282.53 Z" />
<path fill="#f6f6f6" opacity="1.00" d=" M 518.70 282.54 C 520.33 284.10 521.47 286.08 521.88 288.32 C 520.06 286.88 518.75 284.93 518.70 282.54 Z" />
<path fill="#f6f6f6" opacity="1.00" d=" M 573.86 286.87 C 574.94 284.91 576.70 283.48 578.24 281.89 C 582.28 287.89 586.41 293.83 590.35 299.90 C 588.90 300.08 587.09 301.70 585.97 300.08 C 581.83 295.78 577.50 291.59 573.86 286.87 Z" />
<path fill="#f6f6f6" opacity="1.00" d=" M 448.15 287.05 C 450.20 285.92 450.74 290.33 448.81 290.62 C 447.31 290.28 447.24 288.01 448.15 287.05 Z" />
<path fill="#f6f6f6" opacity="1.00" d=" M 530.36 290.60 C 533.88 289.36 537.45 288.08 541.17 287.60 C 543.11 288.20 543.32 290.44 543.98 292.05 C 546.38 300.46 549.29 308.73 551.50 317.18 C 552.07 318.73 550.62 320.14 549.18 320.38 C 538.44 323.69 527.68 326.92 516.96 330.27 C 515.19 330.85 512.36 331.58 511.86 329.00 C 509.47 322.21 507.63 315.24 505.42 308.40 C 505.01 306.69 503.75 303.92 506.02 303.03 C 512.49 300.61 519.21 298.96 525.78 296.81 C 527.01 294.59 527.55 291.36 530.36 290.60 Z" />
<path fill="#f6f6f6" opacity="1.00" d=" M 610.91 289.82 C 613.35 290.22 614.16 292.58 615.03 294.56 C 612.98 293.65 611.82 291.74 610.91 289.82 Z" />
<path fill="#f6f6f6" opacity="1.00" d=" M 448.44 291.35 C 449.76 293.33 449.92 295.82 448.33 297.72 C 448.11 295.60 448.16 293.46 448.44 291.35 Z" />
<path fill="#f6f6f6" opacity="1.00" d=" M 350.58 297.83 C 351.04 296.33 351.84 293.72 353.93 294.35 C 360.61 296.12 367.13 298.48 373.80 300.32 C 375.53 299.26 377.23 298.14 379.12 297.37 C 383.03 298.00 386.78 299.42 390.52 300.67 C 392.85 301.19 392.19 304.04 391.71 305.70 C 389.57 312.90 387.24 320.05 385.17 327.27 C 384.56 329.26 383.96 331.29 382.86 333.08 C 381.08 333.39 379.34 332.81 377.66 332.32 C 367.44 329.06 357.16 326.03 346.92 322.87 C 345.15 322.45 343.07 321.08 344.18 318.99 C 346.21 311.91 348.52 304.91 350.58 297.83 Z" />
<path fill="#f6f6f6" opacity="1.00" d=" M 281.72 300.31 C 280.47 297.81 282.87 296.12 284.40 294.56 C 283.94 296.66 282.95 298.57 281.72 300.31 Z" />
<path fill="#f6f6f6" opacity="1.00" d=" M 614.12 294.56 C 616.21 295.15 617.31 297.01 618.29 298.80 C 615.97 298.55 615.09 296.35 614.12 294.56 Z" />
<path fill="#f6f6f6" opacity="1.00" d=" M 664.70 304.73 C 668.62 298.37 676.75 295.09 683.96 297.32 C 693.34 300.20 699.20 311.19 696.37 320.59 C 695.40 324.19 693.01 327.15 690.36 329.67 C 703.06 333.86 713.77 345.18 714.66 358.90 C 715.65 363.76 711.94 369.09 706.87 369.28 C 698.34 369.67 689.78 369.19 681.24 369.51 C 685.88 359.40 679.35 347.93 670.57 342.56 C 672.61 338.42 673.51 333.52 671.64 329.15 C 670.14 324.56 666.16 321.41 661.87 319.57 C 661.26 314.48 661.60 309.02 664.70 304.73 Z" />
<path fill="#f6f6f6" opacity="1.00" d=" M 617.98 299.50 C 619.24 298.63 620.87 300.78 619.76 301.81 C 618.46 302.67 616.83 300.54 617.98 299.50 Z" />
<path fill="#f6f6f6" opacity="1.00" d=" M 208.05 303.15 C 213.88 298.22 223.17 298.29 229.01 303.18 C 235.52 308.16 238.09 317.45 235.17 325.10 C 234.05 327.99 231.89 330.29 229.81 332.52 C 242.83 336.83 253.89 348.82 254.04 362.99 C 254.60 367.60 250.61 372.01 246.03 372.14 C 237.56 372.42 229.08 372.09 220.61 372.28 C 223.63 365.77 221.73 357.98 217.62 352.40 C 215.65 349.60 212.74 347.72 210.19 345.50 C 211.65 341.19 212.95 336.41 211.05 332.00 C 209.46 327.43 205.54 324.25 201.24 322.34 C 199.93 315.32 202.32 307.60 208.05 303.15 Z" />
<path fill="#f6f6f6" opacity="1.00" d=" M 280.37 300.15 C 282.22 300.88 279.89 304.46 278.29 303.74 C 277.63 302.34 279.01 300.54 280.37 300.15 Z" />
<path fill="#f6f6f6" opacity="1.00" d=" M 341.44 300.21 C 343.63 299.52 345.95 300.12 348.20 300.18 C 346.32 307.07 343.96 313.83 342.13 320.74 C 341.13 319.92 338.52 319.90 338.94 318.09 C 339.57 312.11 340.46 306.14 341.44 300.21 Z" />
<path fill="#f6f6f6" opacity="1.00" d=" M 619.57 302.32 C 622.02 303.31 623.45 305.62 623.94 308.14 C 621.57 307.06 620.52 304.55 619.57 302.32 Z" />
<path fill="#f6f6f6" opacity="1.00" d=" M 276.13 305.24 C 277.74 304.58 278.26 305.10 277.69 306.78 C 276.07 307.44 275.55 306.92 276.13 305.24 Z" />
<path fill="#f6f6f6" opacity="1.00" d=" M 454.46 305.64 C 458.45 304.90 462.64 305.18 466.68 305.45 C 469.39 305.85 468.76 309.03 468.92 311.01 C 468.80 319.67 469.11 328.34 468.79 336.99 C 468.64 340.00 465.02 339.06 462.99 339.28 C 451.36 339.00 439.68 339.68 428.08 338.94 C 426.93 336.83 427.33 334.33 427.24 332.03 C 427.37 325.67 427.13 319.31 427.33 312.96 C 427.41 311.93 427.59 310.15 428.97 310.14 C 435.94 309.46 442.99 310.36 449.98 309.76 C 451.58 308.51 452.77 306.80 454.46 305.64 Z" />
<path fill="#f6f6f6" opacity="1.00" d=" M 271.59 313.64 C 272.29 311.13 273.66 308.77 276.12 307.65 C 275.22 310.04 273.95 312.40 271.59 313.64 Z" />
<path fill="#f6f6f6" opacity="1.00" d=" M 624.14 308.88 C 625.74 307.76 628.06 311.52 626.16 312.27 C 624.74 312.04 623.55 310.24 624.14 308.88 Z" />
<path fill="#f6f6f6" opacity="1.00" d=" M 499.05 314.33 C 500.69 312.92 502.69 312.02 504.57 310.98 C 506.80 317.71 508.61 324.57 510.98 331.26 C 509.41 331.64 507.17 332.66 506.53 330.43 C 504.00 325.09 500.84 319.97 499.05 314.33 Z" />
<path fill="#f6f6f6" opacity="1.00" d=" M 627.12 313.23 C 628.38 312.32 630.02 314.44 628.96 315.51 C 627.69 316.41 626.03 314.29 627.12 313.23 Z" />
<path fill="#f6f6f6" opacity="1.00" d=" M 268.68 318.41 C 269.02 316.14 270.04 314.02 272.45 313.40 C 271.61 315.35 270.30 317.04 268.68 318.41 Z" />
<path fill="#f6f6f6" opacity="1.00" d=" M 632.22 321.10 C 631.07 319.76 627.72 317.42 630.39 315.92 C 631.21 317.55 632.22 319.20 632.22 321.10 Z" />
<path fill="#f6f6f6" opacity="1.00" d=" M 419.22 319.22 C 420.91 317.65 423.56 317.99 425.69 317.42 C 425.71 324.51 425.62 331.60 425.78 338.69 C 424.57 338.56 423.39 338.33 422.24 338.01 C 421.07 331.78 419.79 325.53 419.22 319.22 Z" />
<path fill="#f6f6f6" opacity="1.00" d=" M 267.44 318.28 C 269.84 317.47 269.13 321.55 267.13 321.17 C 265.72 320.76 266.33 318.67 267.44 318.28 Z" />
<path fill="#f6f6f6" opacity="1.00" d=" M 262.88 326.24 C 263.90 324.68 264.32 321.39 266.78 321.96 C 266.06 323.84 264.82 325.50 262.88 326.24 Z" />
<path fill="#f6f6f6" opacity="1.00" d=" M 645.64 332.50 C 646.90 326.24 653.65 321.72 659.92 323.31 C 665.85 324.53 669.79 331.00 668.47 336.85 C 668.03 339.77 666.00 342.01 664.09 344.11 C 671.76 346.72 678.26 353.54 678.66 361.91 C 679.42 365.43 676.80 369.49 672.98 369.33 C 662.30 369.55 651.60 369.32 640.92 369.43 C 638.69 369.32 635.95 369.59 634.44 367.61 C 632.03 364.98 633.21 361.11 634.05 358.08 C 636.19 351.06 642.52 346.39 649.11 343.84 C 646.29 340.84 644.45 336.63 645.64 332.50 Z" />
<path fill="#f6f6f6" opacity="1.00" d=" M 188.35 329.32 C 193.29 323.98 203.17 324.97 206.54 331.57 C 209.68 336.61 207.79 343.20 203.46 346.89 C 210.21 349.38 216.25 354.79 217.68 362.08 C 218.03 364.83 218.72 368.31 216.41 370.43 C 214.84 372.31 212.23 372.20 210.02 372.25 C 200.00 372.22 189.98 372.23 179.96 372.25 C 177.78 372.20 175.20 372.28 173.72 370.37 C 171.65 368.05 172.58 364.69 173.08 361.97 C 174.97 354.52 181.50 349.12 188.59 346.77 C 183.62 342.30 183.39 333.87 188.35 329.32 Z" />
<path fill="#f6f6f6" opacity="1.00" d=" M 534.06 329.14 C 535.86 328.39 537.15 332.59 535.25 333.00 C 533.88 332.43 533.25 330.37 534.06 329.14 Z" />
<path fill="#f6f6f6" opacity="1.00" d=" M 360.81 336.62 C 361.20 334.46 361.98 332.39 363.10 330.51 C 363.35 332.80 363.01 335.34 360.81 336.62 Z" />
<path fill="#f6f6f6" opacity="1.00" d=" M 535.34 333.58 C 538.49 336.50 538.55 341.11 540.02 344.90 C 540.31 346.35 541.43 348.18 540.03 349.43 C 538.51 346.43 538.26 343.01 536.98 339.93 C 536.11 337.91 535.61 335.76 535.34 333.58 Z" />
<path fill="#f6f6f6" opacity="1.00" d=" M 358.98 340.64 C 359.71 339.08 360.47 337.51 361.83 336.40 C 361.58 338.01 361.25 339.60 360.91 341.20 C 360.43 341.06 359.46 340.78 358.98 340.64 Z" />
<path fill="#f6f6f6" opacity="1.00" d=" M 358.56 342.36 C 360.18 341.08 361.19 344.05 359.82 344.89 C 358.18 346.14 357.08 343.19 358.56 342.36 Z" />
<path fill="#f6f6f6" opacity="1.00" d=" M 448.07 342.46 C 448.52 342.71 449.41 343.21 449.86 343.46 C 449.52 345.05 449.09 346.62 448.35 348.08 C 448.17 346.20 448.10 344.34 448.07 342.46 Z" />
<path fill="#f6f6f6" opacity="1.00" d=" M 356.15 351.80 C 356.30 349.38 357.18 347.06 358.95 345.38 C 358.38 347.42 358.96 351.44 356.15 351.80 Z" />
<path fill="#f6f6f6" opacity="1.00" d=" M 448.49 348.36 C 449.62 350.19 450.02 352.46 448.13 354.01 C 448.13 352.11 448.25 350.23 448.49 348.36 Z" />
<path fill="#f6f6f6" opacity="1.00" d=" M 540.25 349.34 C 541.38 350.58 542.16 352.07 542.87 353.58 C 542.42 353.74 541.51 354.07 541.06 354.23 C 540.74 352.61 540.45 350.98 540.25 349.34 Z" />
<path fill="#f6f6f6" opacity="1.00" d=" M 355.44 353.40 C 357.79 351.74 357.01 357.40 355.03 356.67 C 354.43 355.53 354.56 354.44 355.44 353.40 Z" />
<path fill="#f6f6f6" opacity="1.00" d=" M 448.06 354.37 C 449.64 353.23 450.74 356.07 449.51 357.02 C 447.93 358.20 446.78 355.29 448.06 354.37 Z" />
<path fill="#f6f6f6" opacity="1.00" d=" M 542.01 355.40 C 543.37 354.48 544.63 356.90 543.54 357.83 C 542.15 358.76 540.87 356.34 542.01 355.40 Z" />
<path fill="#f6f6f6" opacity="1.00" d=" M 354.38 358.02 C 356.04 358.06 355.68 360.81 354.22 360.91 C 352.57 360.83 352.96 358.16 354.38 358.02 Z" />
<path fill="#f6f6f6" opacity="1.00" d=" M 448.31 357.45 C 449.98 359.59 449.87 362.44 448.42 364.66 C 448.07 362.27 448.05 359.85 448.31 357.45 Z" />
<path fill="#f6f6f6" opacity="1.00" d=" M 543.05 358.32 C 544.87 359.88 545.27 362.20 545.13 364.49 C 543.89 362.65 543.08 360.56 543.05 358.32 Z" />
<path fill="#f6f6f6" opacity="1.00" d=" M 319.02 363.16 C 324.27 359.15 332.03 358.88 337.58 362.47 C 344.86 366.91 348.71 376.61 345.77 384.74 C 344.75 387.96 342.50 390.55 340.17 392.91 C 347.50 395.81 354.43 400.31 358.91 406.93 C 362.32 411.91 364.29 417.90 364.39 423.95 C 364.66 428.54 360.58 432.59 356.06 432.68 C 347.69 432.94 339.32 432.62 330.95 432.88 C 335.29 422.76 329.24 411.15 320.19 405.98 C 322.38 401.65 323.20 396.42 321.09 391.89 C 319.45 387.62 315.67 384.69 311.59 382.92 C 310.00 375.61 312.88 367.52 319.02 363.16 Z" />
<path fill="#f6f6f6" opacity="1.00" d=" M 558.65 363.65 C 564.37 358.62 573.63 358.46 579.55 363.22 C 585.61 367.69 588.49 375.81 586.73 383.12 C 585.96 386.95 583.38 390.04 580.70 392.73 C 588.48 395.69 595.76 400.63 600.19 407.82 C 603.35 412.95 605.24 419.00 604.82 425.06 C 604.55 429.05 600.80 432.25 596.89 432.42 C 588.38 432.76 579.85 432.35 571.33 432.61 C 576.11 422.65 569.66 410.97 560.80 405.76 C 563.26 400.92 563.75 394.84 560.86 390.07 C 559.01 386.54 555.60 384.27 552.09 382.63 C 550.85 375.71 553.07 368.11 558.65 363.65 Z" />
<path fill="#f6f6f6" opacity="1.00" d=" M 351.35 365.03 C 352.26 363.76 353.19 362.50 354.19 361.30 C 353.82 363.14 353.39 364.98 352.94 366.80 C 352.54 366.36 351.75 365.48 351.35 365.03 Z" />
<path fill="#f6f6f6" opacity="1.00" d=" M 448.18 365.13 C 450.10 366.64 449.57 368.86 448.42 370.63 C 448.22 368.80 448.14 366.97 448.18 365.13 Z" />
<path fill="#f6f6f6" opacity="1.00" d=" M 448.01 371.10 C 449.52 369.83 450.78 372.63 449.55 373.62 C 448.02 374.91 446.74 372.07 448.01 371.10 Z" />
<path fill="#f6f6f6" opacity="1.00" d=" M 448.24 374.15 C 450.01 375.77 449.83 378.30 448.27 379.99 C 448.14 378.04 448.12 376.09 448.24 374.15 Z" />
<path fill="#f6f6f6" opacity="1.00" d=" M 438.50 387.54 C 444.28 382.38 453.75 382.29 459.70 387.21 C 466.21 392.15 468.92 401.37 466.04 409.03 C 464.92 411.99 462.76 414.37 460.57 416.59 C 473.59 420.94 484.63 432.86 484.87 447.05 C 485.47 451.99 480.92 456.56 476.02 456.29 C 467.81 456.45 459.59 456.17 451.38 456.44 C 455.90 446.42 449.67 434.79 440.74 429.62 C 442.89 425.24 443.75 419.96 441.56 415.43 C 439.86 411.19 436.11 408.27 432.03 406.47 C 430.79 399.59 432.97 392.03 438.50 387.54 Z" />
<path fill="#f6f6f6" opacity="1.00" d=" M 299.34 389.19 C 304.62 384.28 314.27 385.99 317.19 392.70 C 319.83 397.75 317.78 403.74 313.86 407.46 C 320.35 409.85 326.21 414.96 327.80 421.92 C 328.36 424.82 329.12 428.47 326.82 430.84 C 324.87 433.07 321.64 432.73 318.98 432.80 C 308.66 432.66 298.32 432.92 288.00 432.69 C 284.59 432.73 282.06 429.31 282.79 426.04 C 283.29 417.01 290.62 409.92 298.87 407.25 C 293.63 402.55 293.82 393.57 299.34 389.19 Z" />
<path fill="#f6f6f6" opacity="1.00" d=" M 535.60 398.95 C 534.88 391.73 541.94 385.05 549.12 386.23 C 555.20 386.89 559.78 393.15 558.87 399.15 C 558.58 402.36 556.43 404.92 554.34 407.20 C 561.00 409.65 566.99 414.92 568.48 422.10 C 568.85 424.99 569.63 428.72 567.10 430.90 C 565.54 432.49 563.16 432.49 561.09 432.55 C 551.06 432.53 541.02 432.52 530.99 432.56 C 528.73 432.52 526.03 432.52 524.48 430.58 C 522.51 428.13 523.44 424.76 524.01 421.99 C 525.96 414.65 532.40 409.48 539.32 407.03 C 537.51 404.67 535.45 402.12 535.60 398.95 Z" />
<path fill="#f6f6f6" opacity="1.00" d=" M 419.28 413.28 C 424.26 408.08 433.96 409.16 437.32 415.66 C 440.48 420.70 438.59 427.31 434.25 431.01 C 442.28 433.80 449.10 441.23 448.86 450.08 C 449.22 453.36 446.26 456.46 442.97 456.27 C 431.65 456.38 420.32 456.34 409.00 456.28 C 405.55 456.65 402.59 453.36 403.27 449.99 C 403.57 440.85 411.00 433.62 419.28 430.86 C 414.42 426.25 414.22 417.82 419.28 413.28 Z" />
</g>
</svg>
